<?xml version="1.0" standalone="no"?>
<!DOCTYPE svg PUBLIC "-//W3C//DTD SVG 20010904//EN"
 "http://www.w3.org/TR/2001/REC-SVG-20010904/DTD/svg10.dtd">
<svg version="1.0" xmlns="http://www.w3.org/2000/svg"
 width="699.000000pt" height="699.000000pt" viewBox="0 0 699.000000 699.000000"
 preserveAspectRatio="xMidYMid meet">
<metadata>
Created by potrace 1.14, written by Peter Selinger 2001-2017
</metadata>
<g transform="translate(0.000000,699.000000) scale(0.100000,-0.100000)"
fill="#000000" stroke="none">
<path d="M2172 6656 c4 -5 1 -15 -7 -23 -8 -8 -15 -24 -15 -36 0 -12 -4 -29
-10 -37 -6 -9 -5 -17 3 -22 9 -6 9 -8 0 -8 -7 0 -10 -7 -7 -15 4 -8 2 -15 -4
-15 -5 0 -8 -12 -6 -27 1 -15 -2 -33 -8 -40 -8 -10 -7 -13 3 -13 11 0 11 -2
-1 -10 -8 -5 -11 -10 -7 -10 4 0 3 -8 -2 -18 -7 -13 -6 -23 1 -30 7 -7 8 -12
2 -12 -6 0 -8 -23 -4 -60 3 -33 3 -60 -1 -60 -4 0 -4 -13 1 -30 5 -16 5 -30 1
-30 -4 0 -4 -27 -1 -60 3 -33 2 -60 -3 -60 -4 0 -5 -5 -2 -11 4 -6 8 -29 9
-52 1 -23 5 -48 10 -55 4 -7 2 -19 -4 -27 -8 -10 -9 -15 -2 -15 6 0 11 -15 11
-32 0 -18 0 -52 1 -76 0 -24 3 -41 8 -39 4 3 8 -22 9 -56 2 -36 8 -64 15 -69
10 -6 10 -8 -1 -8 -9 0 -10 -4 -4 -12 5 -7 11 -31 12 -53 1 -21 6 -44 11 -50
6 -7 5 -16 -2 -23 -9 -9 -9 -12 1 -12 8 0 11 -7 8 -20 -3 -12 -1 -18 5 -14 7
5 9 -4 6 -24 -2 -17 -1 -29 3 -27 4 3 9 -4 12 -15 3 -13 1 -18 -6 -13 -7 4 -6
-1 2 -10 7 -9 10 -17 5 -17 -4 0 -3 -5 3 -11 8 -8 8 -20 3 -35 -6 -16 -6 -24
1 -24 6 0 9 -8 7 -17 -1 -10 1 -24 6 -32 7 -11 6 -12 -5 -6 -12 8 -12 6 0 -8
7 -9 11 -17 8 -17 -3 0 0 -12 8 -26 7 -15 11 -33 8 -42 -5 -11 -3 -13 7 -7 10
6 12 4 7 -8 -4 -10 -2 -17 4 -17 6 0 8 -7 5 -16 -3 -8 -2 -13 3 -10 5 3 12 -1
15 -10 4 -10 2 -13 -7 -8 -8 5 -7 2 2 -9 8 -10 11 -20 7 -24 -3 -3 1 -15 11
-25 13 -14 13 -18 2 -18 -9 0 -4 -8 11 -21 14 -11 19 -18 13 -14 -15 7 -18
-11 -3 -20 6 -4 8 -11 5 -16 -4 -5 -1 -9 6 -9 7 0 9 -3 6 -7 -4 -3 1 -15 10
-26 13 -15 14 -18 3 -12 -12 7 -13 6 -3 -6 6 -8 12 -18 13 -24 1 -5 6 -20 11
-33 5 -13 9 -28 9 -33 0 -5 5 -9 11 -9 8 0 8 -4 0 -14 -9 -11 -8 -17 2 -28 8
-7 13 -21 11 -31 -1 -9 1 -17 5 -17 4 0 7 -15 7 -34 -1 -19 -5 -32 -10 -28 -5
3 -7 -2 -3 -11 4 -11 1 -17 -9 -17 -8 0 -12 -4 -9 -10 3 -5 0 -11 -7 -11 -7
-1 -25 -3 -41 -5 -18 -2 -25 1 -21 8 5 7 2 8 -7 2 -24 -14 -51 -16 -43 -2 6
10 4 10 -7 2 -8 -5 -34 -10 -59 -10 -25 1 -48 -3 -52 -9 -5 -6 -8 -5 -8 3 0 8
-5 10 -12 6 -17 -10 -68 -11 -68 0 0 5 -7 3 -15 -4 -12 -10 -15 -10 -15 1 0 9
-3 10 -8 4 -4 -6 -49 -10 -102 -10 -52 1 -101 -3 -107 -8 -8 -6 -13 -6 -13 0
0 10 -140 11 -156 0 -6 -3 -14 -3 -18 1 -11 10 -56 10 -56 0 0 -5 -9 -4 -20 2
-19 10 -24 6 -21 -13 1 -5 -2 -6 -7 -3 -17 10 -62 14 -62 6 0 -5 -7 -7 -16 -3
-9 3 -20 0 -25 -8 -5 -8 -9 -9 -9 -3 0 6 -7 11 -15 11 -8 0 -15 -3 -15 -7 0
-4 -16 -6 -35 -5 -19 0 -35 -3 -35 -7 0 -4 -6 -5 -14 -2 -8 3 -24 1 -35 -6
-16 -8 -21 -8 -21 2 0 8 -3 9 -8 3 -8 -12 -30 -18 -57 -17 -10 1 -26 -4 -34
-11 -12 -10 -13 -9 -6 3 8 13 7 13 -8 1 -14 -11 -17 -11 -17 0 0 11 -2 11 -8
2 -4 -7 -23 -13 -41 -15 -18 -1 -35 -6 -37 -10 -3 -4 -12 -4 -21 -1 -11 5 -14
3 -8 -6 6 -10 3 -11 -14 -2 -11 7 -21 8 -21 3 0 -6 -9 -12 -20 -15 -13 -3 -18
-1 -13 5 4 7 1 8 -7 3 -7 -4 -27 -10 -43 -12 -17 -1 -34 -9 -39 -16 -6 -9 -8
-9 -8 2 0 11 -5 10 -24 -2 -17 -12 -26 -13 -35 -4 -7 7 -11 7 -11 1 0 -6 -10
-10 -22 -9 -13 1 -29 -2 -36 -8 -7 -5 -15 -7 -19 -4 -3 4 -12 2 -20 -4 -7 -6
-13 -8 -13 -5 0 4 -8 2 -18 -3 -13 -7 -23 -6 -32 2 -10 9 -11 9 -6 0 3 -6 2
-14 -4 -18 -5 -3 -10 0 -10 7 0 10 -2 10 -9 0 -5 -8 -20 -15 -35 -15 -14 -1
-26 -6 -26 -10 0 -5 -4 -6 -10 -2 -5 3 -18 -3 -29 -14 -13 -13 -21 -16 -25 -8
-2 7 -5 1 -6 -13 -1 -14 -3 -36 -6 -50 -10 -63 -11 -79 -3 -74 5 3 5 -6 0 -19
-7 -17 -6 -29 2 -37 8 -9 8 -11 1 -7 -13 7 -14 -40 -2 -58 4 -6 3 -17 -2 -25
-4 -7 -4 -24 0 -36 6 -14 5 -26 -1 -29 -5 -4 -6 -12 -2 -18 4 -7 9 -25 10 -42
8 -144 13 -197 19 -207 4 -7 3 -8 -4 -4 -7 4 -12 3 -12 -3 0 -5 5 -13 10 -16
6 -4 7 -12 3 -18 -11 -18 -12 -37 -3 -37 5 0 7 -12 6 -28 -2 -15 1 -35 6 -46
7 -13 7 -16 -1 -12 -8 5 -8 0 -1 -18 5 -14 7 -26 4 -26 -4 0 0 -8 7 -17 12
-15 12 -16 -1 -8 -12 6 -13 5 -2 -6 16 -17 16 -49 0 -49 -10 0 -10 -2 -1 -8
12 -8 11 -41 -2 -62 -3 -6 -1 -10 6 -10 9 0 9 -3 0 -14 -9 -11 -9 -16 0 -21 8
-6 7 -10 -2 -16 -8 -5 -9 -9 -3 -9 10 0 13 -18 16 -97 1 -18 4 -33 7 -33 3 0
7 -26 8 -57 2 -31 7 -61 12 -66 6 -6 6 -19 1 -33 -7 -17 -6 -24 2 -24 6 0 8
-3 5 -7 -4 -3 -2 -12 4 -19 7 -8 7 -14 0 -19 -7 -4 -6 -16 5 -37 10 -20 11
-28 3 -23 -8 5 -10 4 -5 -4 7 -11 16 -51 19 -83 1 -10 4 -18 8 -18 3 0 5 -16
4 -35 -1 -19 3 -35 9 -35 6 0 4 -5 -4 -10 -9 -6 -10 -10 -3 -10 6 0 10 -9 8
-20 -2 -11 0 -20 5 -20 4 0 7 -14 6 -31 -1 -16 1 -32 6 -35 5 -3 6 -10 3 -15
-4 -5 -2 -9 3 -9 8 0 19 -33 24 -77 1 -7 10 -13 20 -13 11 0 16 -4 13 -10 -3
-6 1 -7 9 -4 9 3 16 10 16 15 0 4 7 6 15 2 9 -3 23 3 31 13 9 11 13 14 10 7
-4 -6 -2 -14 4 -18 5 -3 10 0 10 8 0 7 7 14 15 15 8 1 22 3 30 4 8 1 15 6 15
11 0 5 7 7 15 4 8 -4 17 -2 21 4 3 6 12 8 20 5 7 -3 18 3 23 12 7 12 10 13 11
3 0 -10 6 -10 26 4 15 9 23 12 20 6 -4 -6 -2 -11 3 -11 6 0 11 4 11 9 0 6 9 8
20 6 11 -2 20 0 20 4 0 5 11 7 25 6 15 -2 29 3 35 13 5 10 10 12 10 5 0 -13
34 -13 46 -1 3 4 12 4 20 1 8 -3 14 0 14 7 0 10 3 10 15 0 10 -8 15 -9 15 -2
0 7 7 9 17 5 12 -5 14 -3 8 8 -6 11 -5 12 5 2 8 -7 19 -9 29 -4 9 5 24 7 33 6
10 -2 20 1 24 6 3 5 10 6 16 3 6 -4 14 0 19 7 7 11 9 11 9 1 0 -9 5 -10 19 -3
10 6 21 7 25 4 3 -3 6 0 6 8 0 11 2 11 10 -1 8 -12 10 -12 10 -1 0 8 3 11 7 8
3 -4 12 -2 20 4 7 6 13 7 13 2 0 -5 9 -9 19 -9 11 0 17 4 14 10 -3 5 5 7 21 4
14 -3 26 -2 26 3 0 4 8 6 18 4 9 -1 23 2 30 8 8 6 12 6 12 -3 0 -10 3 -10 15
0 8 6 19 9 25 5 5 -3 10 0 10 7 0 9 3 9 10 -2 8 -12 10 -12 10 -1 0 11 3 11
17 0 14 -12 16 -12 8 0 -6 11 -2 13 18 9 15 -3 28 -1 29 3 2 5 19 9 38 10 19
2 41 7 48 12 6 5 12 6 12 2 0 -4 12 0 26 10 15 9 23 12 20 6 -4 -6 -1 -11 7
-11 7 0 14 -7 14 -15 0 -8 -4 -15 -9 -15 -5 0 -7 -4 -3 -9 3 -5 0 -13 -6 -17
-8 -4 -7 -9 2 -15 9 -6 10 -9 2 -9 -10 0 -24 -40 -25 -67 0 -5 -3 -12 -8 -18
-4 -5 -6 -18 -5 -27 2 -10 -1 -18 -6 -18 -6 0 -6 -7 0 -18 6 -11 6 -23 1 -28
-5 -5 -11 -25 -13 -44 -3 -19 -6 -35 -7 -35 0 0 -3 -25 -5 -55 -5 -64 -11 -96
-21 -112 -5 -7 -3 -8 6 -3 10 6 11 4 4 -6 -5 -8 -9 -26 -10 -41 -4 -67 -4 -69
-16 -62 -10 6 -9 3 0 -8 11 -13 11 -21 2 -39 -10 -17 -10 -20 2 -13 11 6 11 5
-1 -9 -7 -9 -11 -17 -9 -17 3 0 2 -18 -2 -39 -4 -25 -3 -44 4 -52 8 -9 8 -10
-1 -5 -9 5 -12 -2 -9 -24 2 -17 0 -33 -5 -35 -4 -3 -6 -14 -4 -25 2 -11 -2
-20 -8 -20 -8 0 -8 -3 1 -9 11 -7 10 -9 -3 -14 -13 -5 -14 -11 -5 -27 8 -14 8
-26 -1 -41 -8 -15 -8 -19 0 -15 7 4 11 -1 11 -12 0 -15 7 -19 35 -19 19 0 32
4 30 8 -5 7 24 23 38 21 4 -1 7 3 7 9 0 5 5 7 10 4 5 -3 16 -3 22 2 13 8 33
13 56 15 6 1 12 6 12 12 0 6 4 5 9 -3 6 -9 11 -10 15 -2 4 6 17 11 30 11 12 0
28 6 35 12 11 11 12 10 6 -2 -6 -11 -3 -10 12 3 11 9 22 14 25 11 4 -3 16 -1
27 6 16 8 21 8 21 -2 0 -9 3 -10 8 -2 4 6 15 10 25 8 9 -1 17 3 17 9 0 5 3 7
7 4 3 -4 13 -1 21 6 13 10 14 9 7 -3 -6 -12 -5 -13 5 -3 10 9 16 9 25 -1 16
-15 17 -68 1 -59 -8 5 -8 3 -1 -8 6 -8 10 -38 10 -67 0 -28 4 -52 9 -52 4 0 3
-6 -3 -14 -8 -10 -9 -16 -1 -21 6 -3 8 -11 5 -16 -4 -5 -1 -9 6 -9 6 0 9 -8 6
-20 -3 -13 0 -20 9 -20 8 0 13 -3 13 -7 -4 -22 3 -30 24 -28 37 5 51 9 66 23
7 7 20 11 28 8 8 -3 11 -1 8 4 -3 6 -1 11 4 11 21 3 26 4 39 13 7 4 16 5 19 2
3 -3 15 1 25 9 11 7 26 11 33 9 7 -3 16 -1 20 5 9 15 51 14 53 -1 1 -7 3 -43
4 -80 2 -36 6 -64 10 -62 4 3 7 -4 7 -13 0 -10 3 -29 6 -43 3 -14 8 -43 12
-65 3 -22 10 -43 16 -46 5 -4 11 -35 12 -70 1 -35 4 -66 5 -69 1 -3 2 -8 1
-13 0 -4 3 -7 8 -7 5 0 7 -9 4 -20 -3 -11 0 -20 6 -20 6 0 11 -9 11 -20 0 -11
5 -20 11 -20 5 0 7 -4 4 -10 -3 -5 -1 -10 5 -10 6 0 8 -5 5 -10 -3 -6 -2 -10
3 -10 6 0 15 -14 21 -30 5 -17 15 -30 20 -30 6 0 10 -3 10 -7 -3 -21 3 -33 17
-33 8 0 13 -3 11 -8 -6 -9 54 -66 74 -70 8 -2 19 -8 24 -14 7 -8 5 -9 -5 -4
-8 4 -6 0 4 -8 11 -9 26 -16 34 -16 7 0 10 -4 7 -10 -3 -5 3 -10 14 -10 12 0
21 -4 21 -10 0 -5 5 -10 10 -10 11 0 44 -32 75 -74 11 -14 22 -23 27 -20 4 3
8 -2 8 -10 0 -15 12 -21 33 -17 5 1 6 -3 2 -9 -3 -5 -1 -10 5 -10 6 0 9 -4 5
-10 -3 -5 8 -16 25 -25 16 -8 30 -20 30 -26 0 -6 4 -8 8 -5 5 3 15 -6 22 -19
7 -13 17 -22 22 -19 4 3 8 -2 8 -11 0 -10 6 -15 13 -12 8 3 20 -3 27 -13 8
-11 17 -17 21 -14 4 2 10 0 14 -6 4 -6 11 -7 17 -4 7 4 8 2 4 -4 -7 -11 6 -17
27 -13 5 1 6 -2 4 -6 -6 -9 18 -34 26 -27 2 2 10 -2 17 -11 15 -18 44 -20 58
-2 8 10 10 57 2 65 -7 7 -4 28 5 34 6 5 2 8 -8 8 -10 0 -16 4 -12 9 3 5 1 12
-4 16 -5 3 -8 14 -6 25 2 12 0 18 -5 15 -11 -7 -20 23 -16 50 2 11 10 19 20
19 9 -1 16 2 16 7 0 6 10 4 23 -3 12 -7 26 -11 31 -10 4 2 15 -3 24 -10 13
-11 14 -11 7 2 -8 13 -7 13 8 1 9 -7 38 -15 65 -17 73 -6 97 -10 109 -17 5 -3
13 -3 17 1 11 10 30 9 39 -3 4 -6 10 -5 16 4 6 9 11 10 15 2 4 -6 13 -8 19 -4
18 12 67 11 74 0 3 -6 1 -7 -5 -3 -7 4 -13 2 -13 -3 -1 -6 -2 -15 -3 -20 0 -6
-7 -16 -15 -23 -12 -11 -13 -11 -6 1 5 10 4 12 -4 7 -6 -4 -9 -11 -7 -15 3 -4
-3 -17 -14 -28 -20 -22 -34 -83 -19 -83 6 0 8 -4 5 -9 -3 -5 1 -12 10 -15 8
-3 12 -2 9 4 -3 6 -1 10 4 10 6 0 11 -5 11 -11 0 -8 5 -8 15 1 8 7 15 10 15 7
0 -4 20 4 45 18 25 13 43 19 40 14 -4 -5 -1 -9 4 -9 6 0 11 4 11 9 0 5 7 12
16 15 9 3 12 2 8 -5 -7 -12 38 11 47 25 4 5 12 5 18 2 6 -4 11 -2 11 4 0 6 4
9 9 5 5 -3 13 -1 16 5 5 8 11 7 21 -1 12 -10 13 -9 8 6 -5 13 -4 16 4 11 7 -4
12 -3 12 3 0 6 7 7 17 4 11 -4 14 -3 9 5 -5 8 1 12 18 12 14 0 26 4 26 8 0 4
10 8 22 9 11 1 25 8 29 15 7 11 9 11 9 0 0 -10 3 -10 14 0 8 7 12 15 11 18 -2
3 6 7 17 7 12 1 25 8 29 15 5 7 9 9 9 5 0 -5 16 8 35 29 19 20 35 33 35 29 0
-5 9 0 20 10 11 10 20 23 20 29 0 12 55 61 68 61 4 0 13 4 19 8 7 5 13 5 13 1
0 -4 10 1 22 12 13 12 18 13 13 4 -8 -13 -7 -13 8 -1 9 7 17 10 17 7 0 -4 7 0
16 8 8 9 20 14 25 11 5 -4 9 -1 9 6 0 7 3 10 6 6 8 -8 33 16 27 26 -3 5 3 7
13 5 11 -2 18 2 17 9 -2 7 4 10 12 7 8 -4 15 -1 15 5 0 6 7 11 15 11 8 0 15 5
15 11 0 6 7 8 16 5 12 -5 15 -2 10 11 -4 10 -4 14 0 11 10 -10 66 21 59 33 -4
5 -3 8 2 7 4 -2 9 1 10 5 1 5 10 15 20 24 11 8 12 12 3 8 -8 -4 -6 2 6 12 21
18 39 51 36 66 -1 4 3 7 10 7 6 0 8 3 5 7 -4 3 -2 12 5 20 6 7 8 16 5 20 -4 3
0 11 8 17 9 6 16 25 18 43 1 17 6 31 12 30 5 -1 9 12 9 30 0 18 4 29 10 26 5
-4 7 3 4 15 -4 12 -3 22 1 22 11 0 7 164 -4 172 -6 5 -6 8 1 8 8 0 9 11 4 34
-4 19 -5 37 -2 40 3 4 1 6 -4 6 -6 0 -10 18 -9 41 1 22 -3 43 -7 45 -5 3 -6
10 -3 15 4 5 3 14 -1 21 -7 11 -11 35 -16 95 -1 12 -6 19 -12 16 -5 -4 -7 1
-3 10 3 9 2 19 -4 22 -5 4 -7 11 -4 16 4 5 0 12 -9 15 -8 3 -12 12 -10 19 3 7
1 16 -5 20 -6 3 -11 11 -11 16 0 6 5 7 11 4 6 -4 5 2 -2 13 -7 12 -17 18 -23
15 -5 -4 -7 3 -4 15 4 12 2 20 -2 17 -5 -3 -12 5 -15 17 -4 13 -14 31 -22 40
-8 9 -12 22 -7 29 4 7 3 10 -3 6 -5 -4 -16 5 -23 18 -7 13 -17 22 -21 19 -5
-3 -6 2 -3 10 3 8 -4 24 -15 35 -12 12 -16 21 -9 21 7 0 2 7 -10 16 -13 9 -21
22 -19 28 3 7 -3 19 -13 26 -11 8 -17 17 -14 21 2 4 -4 15 -13 25 -9 9 -18 22
-19 29 -1 7 -9 21 -18 31 -9 11 -16 23 -15 28 0 5 -4 12 -9 15 -6 3 -12 13
-14 21 -2 8 -11 23 -20 34 -10 10 -15 23 -12 28 3 4 -2 11 -11 14 -13 5 -13 9
-3 22 11 13 11 14 -2 7 -13 -8 -13 -7 -1 9 8 9 20 15 28 12 7 -3 13 -1 13 4 0
6 3 9 8 9 24 -4 42 2 36 13 -4 6 -3 8 3 5 6 -4 25 0 42 9 17 8 36 12 42 8 7
-4 9 -3 5 4 -7 11 30 28 53 23 7 -1 10 2 6 8 -3 6 -1 12 4 12 14 2 29 6 36 9
7 3 22 7 36 9 5 0 7 6 4 11 -3 6 1 10 9 10 9 0 16 4 16 10 0 5 4 9 9 7 5 -1
17 7 26 18 9 11 13 13 9 5 -3 -8 7 0 25 18 17 18 31 30 31 27 0 -3 11 6 25 21
24 25 29 38 26 57 -1 5 2 6 6 4 9 -6 27 13 31 33 2 8 8 17 13 18 5 2 7 8 3 13
-3 5 0 9 6 9 6 0 8 5 5 10 -3 6 -1 10 4 10 6 0 11 9 11 20 0 11 6 20 13 20 9
0 9 2 -1 9 -11 7 -11 9 2 14 9 4 16 10 15 14 -1 4 0 10 1 13 7 18 12 49 12 73
0 20 4 27 14 23 12 -4 12 -1 4 14 -8 15 -8 20 2 20 9 0 9 3 -2 10 -12 8 -12
10 -1 10 11 0 11 3 1 15 -7 8 -8 15 -3 15 5 0 9 22 7 50 -1 30 2 47 8 44 6 -4
5 3 -2 15 -9 17 -9 26 1 37 9 11 9 14 0 14 -7 0 -9 5 -6 11 10 16 12 69 3 69
-4 0 -8 5 -8 11 0 5 4 8 8 5 10 -6 10 40 0 49 -4 4 -3 16 3 26 7 13 6 19 -1
19 -8 0 -8 6 0 20 7 14 7 20 0 20 -12 0 -9 22 5 32 6 5 6 8 -1 8 -6 0 -11 18
-12 41 -1 24 2 38 8 34 6 -3 2 9 -8 27 -10 18 -18 45 -17 61 0 15 -3 27 -8 27
-5 0 -5 6 1 13 13 15 13 19 2 57 -6 20 -5 30 2 30 7 0 7 4 0 13 -6 7 -7 18 -3
25 4 7 5 32 2 55 -4 23 -6 52 -5 65 1 12 -3 22 -8 22 -6 0 -8 7 -5 15 4 8 2
17 -3 20 -5 3 -7 14 -5 25 2 11 1 20 -4 20 -4 0 -8 11 -9 25 -1 14 -3 36 -4
49 -1 14 -6 23 -10 20 -4 -3 -7 6 -6 20 1 13 6 22 10 20 4 -3 8 3 9 13 0 10 3
13 6 6 6 -17 33 -17 33 0 0 9 2 9 8 0 5 -7 13 -9 21 -3 8 4 21 6 29 2 11 -4
13 -1 7 7 -6 10 -3 11 13 2 15 -8 21 -8 24 0 2 7 22 13 43 14 22 2 42 4 45 5
3 1 8 2 13 1 4 0 7 2 7 7 0 4 17 8 38 9 20 2 47 3 60 4 12 1 22 7 22 13 0 6 5
4 10 -4 6 -9 10 -10 10 -3 0 6 9 10 20 8 11 -2 20 0 20 5 0 4 9 6 20 3 11 -3
27 0 35 7 12 10 15 10 15 0 0 -9 3 -10 13 -1 8 6 17 8 20 4 4 -3 7 0 7 7 0 7
3 10 7 7 3 -4 12 -2 20 4 7 6 13 9 13 6 0 -3 16 1 35 9 20 8 40 12 45 9 6 -4
10 -2 10 4 0 5 8 8 18 6 9 -1 22 0 27 4 6 3 19 7 30 8 11 2 22 8 23 13 2 6 8
7 13 4 6 -3 17 0 26 8 9 7 17 11 17 9 2 -8 51 12 58 23 5 7 8 6 8 -3 0 -10 11
-5 32 15 17 16 28 23 24 17 -4 -7 -2 -13 3 -13 6 0 11 5 11 12 0 6 3 9 6 5 3
-3 26 6 50 19 24 14 44 21 44 17 0 -4 4 -3 8 3 4 6 28 21 54 34 27 13 45 28
41 34 -3 6 -3 8 2 4 4 -4 20 -1 36 8 16 8 29 12 29 9 0 -3 9 4 20 15 12 12 25
18 30 15 6 -4 10 1 10 10 0 9 4 14 9 10 5 -3 12 -1 16 5 4 6 11 8 16 5 5 -4 9
-2 9 4 0 6 11 13 24 17 15 3 23 12 21 22 -1 9 3 20 9 24 8 5 7 8 -2 8 -7 0
-11 4 -7 9 7 12 -32 34 -45 26 -5 -3 -11 -2 -14 3 -2 4 -22 9 -42 10 -21 2
-42 8 -46 15 -6 9 -8 9 -8 -1 0 -8 -5 -10 -12 -5 -7 4 -22 8 -33 9 -56 6 -134
14 -165 18 -19 2 -53 6 -75 7 -22 1 -45 6 -52 11 -7 5 -14 5 -18 -2 -5 -8 -11
-8 -21 1 -8 6 -14 8 -14 4 0 -4 -8 -1 -17 6 -14 12 -15 12 -9 0 7 -10 4 -12
-13 -6 -11 3 -42 8 -68 10 -53 4 -73 8 -88 16 -5 3 -27 5 -47 4 -21 0 -38 3
-38 7 0 4 -12 6 -27 4 -16 -1 -43 1 -60 5 -22 5 -33 3 -33 -5 0 -6 -5 -4 -10
4 -5 8 -10 10 -10 5 0 -6 -9 -11 -19 -11 -11 0 -17 4 -15 8 3 4 -11 5 -31 4
-19 -2 -35 0 -35 5 0 11 -23 7 -32 -6 -5 -6 -8 -5 -8 4 0 7 -6 11 -15 8 -8 -4
-17 -2 -21 4 -4 7 -10 6 -19 -1 -9 -7 -15 -7 -19 -1 -4 5 -15 8 -26 6 -11 -2
-20 1 -20 7 0 7 -6 6 -15 -2 -8 -7 -15 -8 -15 -3 0 6 -16 9 -35 8 -19 -1 -35
1 -35 5 0 3 -18 5 -40 4 -22 -1 -40 2 -40 7 0 6 -9 5 -20 -1 -11 -6 -20 -7
-20 -3 0 5 -11 10 -26 11 -16 1 -23 -2 -18 -9 4 -8 1 -8 -12 -2 -11 5 -37 8
-59 8 -22 0 -43 5 -47 10 -5 6 -8 6 -8 -1 0 -8 -26 -10 -87 -7 -49 3 -96 5
-106 5 -11 -1 -15 4 -10 11 4 8 1 8 -9 -1 -11 -9 -18 -10 -23 -2 -3 5 -15 10
-26 10 -10 0 -19 5 -19 10 0 6 -9 10 -21 10 -11 0 -17 5 -14 10 5 9 -8 12 -31
9 -4 0 -10 3 -13 8 -11 15 -52 34 -61 28 -6 -4 -10 1 -10 11 0 11 -6 15 -20
11 -11 -3 -23 -1 -26 4 -3 5 -10 7 -15 4 -5 -4 -9 0 -9 7 0 11 -2 10 -9 0 -7
-11 -9 -11 -14 2 -4 9 -10 16 -14 15 -4 -1 -10 -1 -13 1 -3 1 -16 4 -30 6 -13
2 -28 10 -32 17 -4 6 -8 8 -8 3 0 -5 -7 -3 -15 4 -12 10 -15 10 -15 -1 0 -12
-2 -12 -9 0 -5 7 -13 11 -19 7 -6 -3 -12 -2 -14 3 -1 5 -16 11 -33 13 -16 1
-33 7 -36 12 -4 4 -21 9 -38 10 -17 0 -31 4 -31 8 0 4 -9 5 -20 3 -11 -2 -20
2 -20 8 0 7 -4 6 -10 -3 -5 -8 -10 -10 -10 -3 0 6 -8 10 -17 9 -10 -2 -21 2
-25 8 -6 8 -11 7 -17 -3 -5 -8 -10 -9 -12 -2 -2 6 -31 11 -64 12 -33 1 -70 6
-83 10 -13 5 -21 5 -18 1 2 -4 -4 -8 -14 -8 -10 0 -16 4 -13 9 3 6 -8 8 -26 5
-18 -3 -31 0 -31 6 0 6 -5 4 -10 -4 -9 -13 -10 -13 -10 0 0 13 -1 13 -10 0 -5
-8 -10 -10 -10 -4 0 13 -42 13 -52 -1 -5 -6 -8 -5 -8 3 0 10 -5 10 -20 2 -11
-6 -20 -7 -20 -3 0 9 -67 9 -76 0 -3 -3 -17 -2 -31 4 -13 5 -22 5 -19 0 3 -5
-3 -11 -14 -14 -11 -3 -20 -2 -20 2 0 4 -7 8 -15 8 -8 0 -12 -4 -9 -9 3 -4
-11 -8 -31 -8 -26 0 -34 -3 -29 -12 6 -10 5 -10 -7 -1 -10 8 -25 10 -45 4 -16
-4 -39 -7 -51 -6 -13 1 -23 -2 -23 -6 0 -5 -7 -6 -15 -3 -8 4 -15 2 -15 -2 0
-14 -91 -15 -105 -1 -6 7 -15 29 -19 50 -4 20 -11 37 -16 37 -5 0 -7 7 -4 15
4 8 1 15 -6 15 -6 0 -9 4 -5 9 3 5 0 15 -7 23 -7 7 -14 20 -14 28 -3 28 -9 44
-22 58 -7 8 -10 18 -7 23 4 5 3 9 -2 9 -4 0 -17 19 -28 43 -11 23 -24 45 -30
49 -6 5 -4 8 5 8 12 1 11 4 -3 14 -10 8 -20 23 -22 33 -1 10 -8 17 -14 16 -6
-2 -13 8 -17 22 -3 14 -10 25 -15 25 -5 0 -9 7 -9 15 0 8 -7 15 -16 15 -9 0
-14 6 -11 13 3 8 -3 20 -14 28 -10 7 -19 19 -19 26 0 7 -4 13 -10 13 -5 0 -10
7 -10 15 0 8 -10 24 -22 36 -13 12 -17 19 -10 15 6 -4 12 -2 12 3 0 6 -7 11
-16 11 -8 0 -13 4 -9 9 3 5 -2 16 -11 25 -8 9 -12 21 -8 27 4 8 3 9 -4 5 -7
-4 -12 -1 -12 8 0 8 -8 19 -17 25 -10 5 -15 12 -11 16 3 4 -1 15 -10 25 -34
38 -42 50 -42 65 0 8 -4 15 -10 15 -5 0 -10 7 -10 15 0 8 -4 15 -10 15 -5 0
-10 6 -10 14 0 8 -7 17 -16 20 -9 4 -14 13 -10 21 5 13 -5 20 -27 16 -4 0 -6
2 -5 6 3 13 -32 73 -42 73 -6 0 -10 9 -10 19 0 10 -7 21 -15 25 -8 3 -15 12
-15 21 0 8 -4 15 -10 15 -5 0 -10 7 -10 15 0 8 -4 15 -10 15 -5 0 -10 5 -10
11 0 5 6 7 13 3 6 -4 -1 5 -16 21 -15 16 -35 43 -43 62 -9 18 -20 30 -25 27
-5 -3 -9 -2 -8 3 4 16 -13 43 -27 43 -8 0 -14 7 -14 16 0 8 -4 12 -10 9 -5 -3
-10 -1 -10 4 0 6 -7 11 -16 11 -10 0 -14 5 -10 16 3 8 2 12 -4 9 -6 -3 -10 1
-10 9 0 9 -7 13 -20 11 -11 -2 -19 -1 -17 3 1 4 -2 7 -6 7 -5 0 -13 8 -18 18
-6 9 -15 15 -20 11 -5 -3 -18 0 -27 7 -9 7 -14 10 -10 5z m278 -3921 c0 4 7
-1 16 -9 8 -9 21 -13 27 -9 7 3 9 3 5 -2 -6 -7 20 -31 94 -88 13 -10 33 -20
46 -23 12 -4 22 -10 22 -15 0 -5 9 -9 19 -9 11 0 23 -5 26 -10 4 -6 10 -8 15
-5 5 3 11 1 15 -5 4 -6 11 -7 17 -4 7 4 8 2 4 -4 -4 -7 0 -12 10 -12 10 0 14
-3 11 -7 -4 -3 -1 -13 6 -21 8 -10 8 -13 0 -9 -12 8 -37 -49 -27 -64 3 -5 0
-9 -6 -9 -6 0 -8 -4 -5 -10 3 -5 3 -16 -2 -22 -4 -7 -9 -20 -11 -28 -5 -25
-10 -45 -12 -45 -1 0 -3 -11 -6 -24 -2 -14 -10 -31 -17 -40 -6 -8 -7 -12 -2
-9 6 4 11 -2 11 -12 0 -10 -5 -16 -11 -13 -7 2 -12 -2 -13 -9 -1 -7 -3 -26 -6
-43 -14 -89 -18 -124 -19 -157 -1 -21 -5 -38 -8 -38 -4 0 -5 -14 -3 -31 3 -22
0 -28 -9 -23 -9 6 -9 4 -1 -7 12 -15 13 -67 2 -85 -4 -5 -3 -16 1 -23 13 -21
-11 -71 -34 -73 -83 -6 -94 -5 -100 10 -3 8 -2 18 3 21 4 3 7 15 7 26 0 11 2
25 6 30 5 10 9 37 12 83 0 12 4 22 9 22 4 0 5 7 2 15 -4 8 -1 15 5 15 6 0 8 7
5 15 -4 8 -1 15 5 15 6 0 8 7 5 15 -4 8 -2 15 3 15 6 0 9 14 8 30 -1 17 1 33
5 35 3 2 6 27 6 56 -1 44 -4 53 -23 60 -15 5 -23 5 -23 -2 0 -6 -5 -7 -10 -4
-6 4 -16 2 -23 -4 -13 -10 -57 -22 -89 -24 -10 -1 -18 -5 -18 -10 0 -4 -4 -5
-10 -2 -5 3 -10 2 -10 -2 0 -5 -15 -9 -32 -10 -18 -2 -49 -4 -68 -5 -30 -3
-34 0 -31 17 3 11 5 37 5 58 1 20 5 37 10 37 4 0 6 9 3 20 -3 11 -1 20 3 20 5
0 7 11 6 25 -2 14 1 22 7 18 6 -4 8 4 5 21 -3 14 -1 26 5 26 5 0 7 9 4 20 -3
11 -1 20 5 20 5 0 6 5 3 10 -3 6 -1 10 4 10 6 0 10 3 10 8 -1 4 0 9 1 12 4 13
22 102 23 118 0 6 3 12 7 12 3 0 7 9 8 20 1 11 3 29 4 40 1 11 6 20 11 20 4 0
5 5 2 10 -3 6 -3 16 2 23 4 6 8 17 8 22 1 6 6 9 13 8 7 -2 12 2 12 7 0 7 6 7
20 0 11 -6 20 -8 20 -5z"/>
<path d="M990 5798 c0 -6 -7 -8 -15 -4 -8 3 -14 0 -12 -7 1 -7 -6 -11 -16 -9
-9 2 -20 -4 -23 -12 -3 -9 -12 -12 -22 -8 -15 5 -16 4 -2 -13 11 -14 12 -17 1
-11 -9 6 -12 5 -9 -5 3 -8 1 -22 -4 -32 -6 -12 -5 -16 3 -15 6 2 13 -5 14 -15
4 -22 15 -36 15 -18 0 7 8 4 20 -7 12 -11 33 -18 53 -17 28 0 33 -3 32 -20 -1
-14 -10 -21 -28 -23 -15 -2 -27 -7 -27 -11 0 -5 -8 -8 -17 -8 -38 0 -45 -3
-39 -18 3 -8 0 -14 -6 -12 -6 1 -11 -8 -13 -20 -1 -12 2 -20 6 -18 4 3 10 -3
13 -12 6 -15 8 -15 16 -3 8 12 10 12 16 -3 5 -14 9 -15 20 -6 10 8 14 8 14 0
0 -6 3 -10 8 -10 4 1 28 1 55 0 33 -1 47 -5 47 -15 0 -7 7 -27 15 -42 8 -16
15 -23 15 -16 0 10 3 10 15 -1 18 -18 58 -11 51 9 -3 8 -1 14 5 14 6 0 9 7 5
15 -3 8 -1 15 5 15 6 0 8 7 5 16 -3 8 -2 12 4 9 6 -3 10 -1 10 5 0 6 4 9 9 6
5 -3 14 1 21 9 7 8 16 12 21 9 5 -3 6 3 2 12 -4 10 -2 15 4 11 5 -3 9 3 8 15
-2 29 -42 56 -77 52 -19 -3 -27 0 -22 7 4 8 0 7 -15 0 -17 -10 -21 -9 -21 4 0
9 -4 14 -8 11 -5 -3 -9 1 -9 8 0 8 6 12 14 9 7 -3 13 2 13 12 0 9 5 13 10 10
6 -3 10 -1 10 5 0 6 5 8 12 4 7 -5 9 -2 5 9 -4 12 -2 14 10 10 11 -4 14 -2 9
5 -4 7 -3 12 3 12 16 0 3 44 -16 57 -10 7 -23 16 -28 20 -14 11 -36 16 -60 15
-10 -1 -26 4 -34 11 -12 10 -13 9 -6 -3 7 -12 6 -13 -6 -3 -19 15 -79 24 -79
11z m124 -374 c3 -8 2 -12 -4 -9 -6 3 -10 10 -10 16 0 14 7 11 14 -7z"/>
<path d="M1566 5347 c4 -12 2 -17 -7 -15 -7 2 -13 -1 -14 -7 0 -5 -4 -16 -8
-22 -8 -13 -2 -17 18 -13 5 1 1 -9 -10 -21 -11 -12 -14 -19 -7 -15 7 4 12 2
12 -6 0 -8 -6 -20 -12 -27 -11 -11 -10 -12 1 -6 9 5 12 4 7 -3 -4 -7 -14 -12
-22 -12 -8 0 -12 -4 -9 -10 3 -5 1 -10 -5 -10 -6 0 -9 -4 -5 -9 3 -5 1 -12 -5
-16 -12 -7 5 -44 29 -62 18 -14 142 -13 134 1 -4 5 0 6 8 0 19 -12 62 -17 55
-6 -3 5 4 8 16 8 26 -1 43 38 24 56 -13 14 -36 53 -36 62 0 3 8 3 18 0 14 -5
14 -4 3 4 -17 12 -23 54 -7 45 6 -3 1 4 -11 16 -12 11 -26 21 -31 21 -5 0 -15
6 -21 14 -7 8 -21 13 -32 11 -10 -2 -19 0 -19 6 0 5 -10 9 -23 9 -13 0 -29 6
-36 13 -10 10 -11 8 -5 -6z"/>
<path d="M984 5303 c-25 -16 -22 -78 3 -69 8 3 12 2 9 -3 -7 -11 12 -19 42
-16 12 1 22 -1 22 -4 0 -5 66 -7 97 -3 7 1 10 9 6 19 -5 13 -2 15 13 10 17 -6
17 -6 3 5 -9 7 -14 19 -12 26 3 6 -2 12 -11 12 -9 0 -15 5 -13 11 4 20 -132
30 -159 12z"/>
<path d="M5637 3790 c-3 -13 -1 -18 5 -13 7 4 8 1 2 -8 -13 -21 -14 -39 -2
-39 6 0 4 -7 -3 -17 -10 -11 -10 -14 -1 -9 6 4 13 2 13 -3 1 -6 2 -17 3 -23 1
-7 7 -12 14 -11 6 2 9 -4 6 -12 -4 -10 0 -13 15 -10 13 2 19 0 15 -6 -3 -6 2
-17 12 -25 11 -9 12 -12 4 -8 -12 6 -13 4 -2 -7 15 -16 16 -33 0 -23 -7 4 -8
3 -4 -4 4 -7 14 -12 22 -12 8 0 13 -4 10 -9 -9 -14 5 -42 17 -34 6 4 8 0 4
-11 -4 -9 -3 -15 2 -12 4 3 17 -3 28 -13 34 -32 109 -46 147 -28 14 7 16 6 11
-4 -6 -9 -3 -10 11 -5 10 5 25 9 32 9 7 0 11 6 8 13 -3 9 1 11 11 7 10 -4 14
-2 10 4 -4 6 -1 14 5 16 10 4 10 6 1 6 -7 1 -10 8 -6 18 4 11 3 14 -5 9 -8 -5
-10 -2 -6 8 5 12 -4 17 -38 23 -23 4 -47 6 -51 5 -4 -1 -15 4 -23 13 -9 8 -21
15 -27 15 -7 0 -6 -4 3 -10 8 -5 10 -10 5 -10 -13 0 -35 21 -35 33 0 4 5 5 10
2 6 -3 10 -2 10 4 0 5 -6 12 -12 15 -9 3 -6 11 10 24 12 11 22 25 22 30 0 6 6
13 13 16 6 3 1 3 -12 0 -15 -4 -21 -2 -17 4 3 6 2 13 -4 17 -5 3 -10 0 -10 -7
0 -10 -2 -10 -9 1 -5 7 -15 11 -22 9 -8 -3 -23 -1 -34 5 -19 10 -19 9 -5 -9
14 -18 14 -18 -6 -1 -11 9 -24 14 -27 10 -4 -3 -7 1 -7 11 0 9 -7 19 -15 22
-8 4 -12 10 -9 15 3 5 0 9 -6 9 -6 0 -8 5 -4 13 5 7 0 6 -11 -3 -10 -8 -16
-10 -12 -3 4 6 3 14 -2 17 -5 4 -13 2 -16 -4 -5 -8 -11 -8 -20 0 -9 8 -14 5
-18 -10z"/>
<path d="M5865 3640 c-3 -6 1 -7 9 -4 18 7 21 14 7 14 -6 0 -13 -4 -16 -10z"/>
<path d="M6240 3458 c0 -5 -4 -7 -9 -3 -6 3 -8 -4 -6 -15 2 -11 1 -19 -3 -16
-11 6 -29 -18 -26 -37 1 -9 -2 -17 -7 -17 -6 0 -8 -4 -4 -9 3 -5 1 -12 -4 -15
-11 -7 -11 -56 0 -56 5 0 9 -5 9 -11 0 -5 -5 -7 -12 -3 -6 4 -8 3 -5 -3 8 -12
86 -13 93 -1 4 5 17 0 30 -13 13 -12 21 -26 18 -30 -3 -5 0 -9 6 -9 6 0 8 -4
5 -10 -3 -5 -1 -10 6 -10 7 0 9 -3 6 -7 -12 -11 24 -42 41 -36 9 4 13 2 9 -4
-4 -6 14 -3 38 6 29 10 43 21 40 29 -3 7 -1 11 4 8 5 -3 15 2 22 11 12 14 12
16 -1 9 -8 -4 -6 0 4 8 24 19 28 66 6 74 -8 3 -18 10 -22 16 -6 8 -11 7 -17
-3 -5 -7 -10 -9 -12 -3 -2 6 -20 12 -39 13 -19 2 -40 11 -47 19 -10 12 -12 12
-13 1 0 -9 -4 -10 -12 -4 -7 6 -21 9 -31 8 -9 -2 -15 0 -12 5 3 4 -3 11 -13
15 -16 6 -16 7 0 16 9 5 15 16 12 23 -3 8 -1 17 5 21 8 4 6 12 -5 23 -18 17
-54 24 -54 10z"/>
<path d="M6270 3266 c0 -2 8 -10 18 -17 15 -13 16 -12 3 4 -13 16 -21 21 -21
13z"/>
<path d="M6408 2793 c-10 -2 -18 -9 -18 -14 0 -5 -8 -9 -17 -9 -13 0 -14 -3
-5 -12 8 -8 9 -15 1 -25 -9 -10 -8 -13 2 -13 11 0 11 -2 -1 -10 -11 -7 -11
-10 -2 -10 7 0 11 -4 7 -9 -3 -5 0 -13 6 -17 8 -4 7 -9 -2 -15 -12 -8 -11 -11
1 -19 12 -8 13 -10 1 -10 -8 0 -12 -3 -9 -6 4 -3 2 -19 -2 -35 -5 -18 -5 -29
1 -29 6 0 6 -7 0 -19 -8 -14 -7 -22 4 -31 9 -7 18 -10 22 -7 3 4 12 2 20 -4
10 -9 13 -8 13 0 0 7 5 9 11 5 7 -4 9 1 7 12 -2 11 3 25 12 32 13 11 13 12 0
6 -11 -5 -12 -4 -4 5 6 7 23 14 36 15 24 3 82 36 63 36 -5 0 -1 6 9 13 12 9
19 30 21 66 2 29 2 51 -2 48 -3 -3 -16 5 -30 19 -13 13 -33 24 -43 24 -11 0
-20 5 -20 10 0 11 -41 7 -61 -6 -8 -4 -9 -3 -5 4 4 7 6 11 4 11 -2 -1 -11 -3
-20 -6z"/>
<path d="M6386 2412 c-14 -18 -16 -27 -8 -30 7 -2 10 -8 6 -13 -3 -5 3 -9 13
-9 11 0 25 -6 32 -12 11 -10 13 -10 7 0 -4 6 -4 12 1 12 4 0 13 11 20 25 6 14
7 23 2 19 -5 -3 -9 2 -9 11 0 9 -4 13 -10 10 -5 -3 -10 0 -10 7 0 10 -2 10 -9
-1 -5 -7 -10 -9 -12 -3 -2 6 -13 -2 -23 -16z"/>
</g>
</svg>
